<?xml version="1.0" encoding="UTF-8"?>
<svg version="1.1" xmlns="http://www.w3.org/2000/svg" width="512" height="512">
<path d="M0 0 C0.73250977 -0.00700928 1.46501953 -0.01401855 2.21972656 -0.02124023 C4.62604382 -0.03875584 7.03117209 -0.02722142 9.4375 -0.01367188 C11.11849186 -0.01636866 12.79948221 -0.02025264 14.48046875 -0.02526855 C17.99754743 -0.03115485 21.5142188 -0.02262896 25.03125 -0.00390625 C29.53052189 0.01888312 34.02883927 0.00575532 38.52807617 -0.01819611 C41.99746847 -0.03267779 45.46663594 -0.02803731 48.93603516 -0.01768494 C50.59456496 -0.01502418 52.25311544 -0.01826444 53.91162109 -0.02760315 C56.23329421 -0.03780834 58.55344011 -0.02221466 60.875 0 C62.19371094 0.00318237 63.51242188 0.00636475 64.87109375 0.00964355 C70.36465336 0.79204709 73.20909173 3.09684266 76.78411865 7.2315979 C78.879567 11.39615548 78.97593947 14.50375595 78.89160156 19.09326172 C78.89218567 19.93294495 78.89276978 20.77262817 78.89337158 21.63775635 C78.89059739 24.39760492 78.8595375 27.15635705 78.828125 29.91601562 C78.82066023 31.83557546 78.81496841 33.75514294 78.81097412 35.67471313 C78.79573638 40.71532405 78.75647054 45.75547045 78.7121582 50.79589844 C78.67116539 55.9439465 78.65295454 61.09206997 78.6328125 66.24023438 C78.58997454 76.33288585 78.52174569 86.42519329 78.4375 96.51757812 C79.50159088 96.50869568 80.56568176 96.49981323 81.66201782 96.49066162 C91.69649945 96.40952864 101.73091442 96.34959004 111.7656498 96.31032944 C116.92447214 96.28946646 122.08302942 96.26117215 127.24169922 96.21582031 C132.22135392 96.17231688 137.20075386 96.14843131 142.18058395 96.13806915 C144.07918686 96.13068588 145.97777602 96.11626798 147.87627029 96.0946579 C150.53842403 96.06556404 153.19952893 96.0616246 155.86181641 96.06347656 C156.64440826 96.04909546 157.42700012 96.03471436 158.23330688 96.01989746 C163.4131379 96.05881462 166.38867588 97.01684969 170.4375 100.51757812 C175.02031557 105.63949214 175.03823891 110.18115401 175.046875 116.72851562 C175.06341125 117.69665192 175.07994751 118.66478821 175.09698486 119.66226196 C175.14537345 122.73909915 175.1668158 125.81544238 175.1875 128.89257812 C175.21566728 130.98505077 175.24559576 133.0775005 175.27734375 135.16992188 C175.35113022 140.28576662 175.40076088 145.40133862 175.4375 150.51757812 C176.05372726 149.89766369 176.66995453 149.27774925 177.30485535 148.63904953 C192.30914969 133.54636537 207.32454497 118.46480456 222.35232544 103.395504 C229.61942129 96.10779496 236.88273185 88.81638734 244.13720703 81.51611328 C250.46121973 75.15219503 256.79226455 68.79537173 263.13180447 62.44691968 C266.48738368 59.08613209 269.83936916 55.72193044 273.18295288 52.34920502 C276.33266119 49.17226915 279.49171564 46.00493247 282.65806389 42.84458351 C283.81604344 41.68550702 284.97062098 40.52301973 286.12143135 39.35682487 C295.43597825 29.92394484 302.89204324 24.32889253 316.625 24.20507812 C323.39688647 24.18575442 328.62435995 24.76914744 334.4375 28.51757812 C335.05753906 28.87980469 335.67757813 29.24203125 336.31640625 29.61523438 C344.31935808 34.71430736 348.85681054 42.49668242 350.90625 51.59960938 C352.52169661 61.78793744 350.14278152 71.05644713 344.4375 79.51757812 C341.017875 83.48553964 337.31605255 87.14649761 333.58862305 90.82055664 C332.48359129 91.92445819 331.37944337 93.02924507 330.27610779 94.13484192 C327.2977822 97.11430882 324.30734173 100.0813346 321.31447196 103.04618192 C318.1816026 106.15394007 315.06015851 109.27313207 311.93745422 112.39109802 C306.03115073 118.28500023 300.11473104 124.1686369 294.19455415 130.04860014 C287.45144986 136.74689796 280.71978482 143.45664242 273.98902833 150.16734421 C260.15115583 163.96347692 246.29907434 177.74526191 232.4375 191.51757812 C233.66267334 191.53159668 233.66267334 191.53159668 234.91259766 191.54589844 C238.62983506 191.5997332 242.345832 191.68335806 246.0625 191.76757812 C247.34769531 191.78175781 248.63289063 191.7959375 249.95703125 191.81054688 C261.99816952 192.12249346 261.99816952 192.12249346 266.4375 196.51757812 C270.25365622 201.04184399 270.94094092 204.22190832 270.95507812 210.08007812 C270.96559204 211.17884277 270.96559204 211.17884277 270.97631836 212.29980469 C270.99383397 214.70612195 270.98229954 217.11125021 270.96875 219.51757812 C270.97144679 221.19856999 270.97533077 222.87956033 270.98034668 224.56054688 C270.98623298 228.07762556 270.97770709 231.59429692 270.95898438 235.11132812 C270.93619501 239.61060002 270.9493228 244.10891739 270.97327423 248.6081543 C270.98775591 252.07754659 270.98311544 255.54671407 270.97276306 259.01611328 C270.97010231 260.67464309 270.97334257 262.33319357 270.98268127 263.99169922 C270.99288646 266.31337233 270.97729279 268.63351823 270.95507812 270.95507812 C270.95189575 272.27378906 270.94871338 273.5925 270.94543457 274.95117188 C270.17340368 280.37190117 267.99182211 283.26950004 263.76801872 286.66109848 C259.95683082 288.78551013 257.04866381 289.07015864 252.80654907 288.99859619 C252.05821599 289.00201389 251.30988292 289.00543159 250.53887308 289.00895286 C248.0419592 289.01551931 245.54613052 288.99357728 243.04931641 288.97167969 C241.25535101 288.97055094 239.46138376 288.97118561 237.66741943 288.97344971 C232.80413117 288.97459671 227.94123804 288.95108957 223.07804155 288.92315388 C217.99315936 288.89813797 212.90826797 288.89579807 207.82333374 288.89105225 C198.19738634 288.87862305 188.5716208 288.84580211 178.94575346 288.80565429 C167.98575179 288.76093492 157.02574141 288.73894911 146.06567121 288.71887255 C123.52284668 288.6770695 100.98018353 288.60671843 78.4375 288.51757812 C78.44638245 289.58166901 78.45526489 290.64575989 78.4644165 291.74209595 C78.54554948 301.77657758 78.60548808 311.81099254 78.64474869 321.84572792 C78.66561166 327.00455027 78.69390597 332.16310754 78.73925781 337.32177734 C78.78276124 342.30143205 78.80664681 347.28083199 78.81700897 352.26066208 C78.82439224 354.15926498 78.83881014 356.05785415 78.86042023 357.95634842 C78.88951408 360.61850215 78.89345352 363.27960706 78.89160156 365.94189453 C78.91317322 367.11578232 78.91317322 367.11578232 78.93518066 368.31338501 C78.89621807 373.49926402 77.83145173 376.38757573 74.4375 380.51757812 C69.91323413 384.33373434 66.7331698 385.02101905 60.875 385.03515625 C59.77623535 385.04567017 59.77623535 385.04567017 58.65527344 385.05639648 C56.24895618 385.07391209 53.84382791 385.06237767 51.4375 385.04882812 C49.75650814 385.05152491 48.07551779 385.05540889 46.39453125 385.0604248 C42.87745257 385.0663111 39.3607812 385.05778521 35.84375 385.0390625 C31.34447811 385.01627313 26.84616073 385.02940093 22.34692383 385.05335236 C18.87753153 385.06783404 15.40836406 385.06319356 11.93896484 385.05284119 C10.28043504 385.05018043 8.62188456 385.05342069 6.96337891 385.0627594 C4.64170579 385.07296459 2.32155989 385.05737091 0 385.03515625 C-1.31871094 385.03197388 -2.63742188 385.0287915 -3.99609375 385.0255127 C-9.41682305 384.2534818 -12.31442192 382.07190023 -15.70602036 377.84809685 C-17.830432 374.03690894 -18.11508051 371.12874193 -18.04351807 366.8866272 C-18.04693577 366.13829412 -18.05035347 365.38996104 -18.05387473 364.6189512 C-18.06044118 362.12203733 -18.03849915 359.62620864 -18.01660156 357.12939453 C-18.01547281 355.33542913 -18.01610748 353.54146188 -18.01837158 351.74749756 C-18.01951858 346.88420929 -17.99601144 342.02131617 -17.96807575 337.15811968 C-17.94305985 332.07323749 -17.94071994 326.9883461 -17.93597412 321.90341187 C-17.92354492 312.27746447 -17.89072399 302.65169892 -17.85057616 293.02583158 C-17.80585679 282.06582991 -17.78387098 271.10581953 -17.76379442 260.14574933 C-17.72199137 237.6029248 -17.65164031 215.06026166 -17.5625 192.51757812 C-18.62659088 192.52646057 -19.69068176 192.53534302 -20.78701782 192.54449463 C-30.82149945 192.62562761 -40.85591442 192.68556621 -50.8906498 192.72482681 C-56.04947214 192.74568979 -61.20802942 192.7739841 -66.36669922 192.81933594 C-71.34635392 192.86283937 -76.32575386 192.88672494 -81.30558395 192.8970871 C-83.20418686 192.90447037 -85.10277602 192.91888827 -87.00127029 192.94049835 C-89.66342403 192.96959221 -92.32452893 192.97353165 -94.98681641 192.97167969 C-95.76940826 192.98606079 -96.55200012 193.00044189 -97.35830688 193.01525879 C-102.5441859 192.97629619 -105.4324976 191.91152986 -109.5625 188.51757812 C-113.37865622 183.99331226 -114.06594092 180.81324793 -114.08007812 174.95507812 C-114.0870874 174.22256836 -114.09409668 173.49005859 -114.10131836 172.73535156 C-114.11883397 170.3290343 -114.10729954 167.92390604 -114.09375 165.51757812 C-114.09644679 163.83658626 -114.10033077 162.15559592 -114.10534668 160.47460938 C-114.11123298 156.95753069 -114.10270709 153.44085933 -114.08398438 149.92382812 C-114.06119501 145.42455623 -114.0743228 140.92623886 -114.09827423 136.42700195 C-114.11275591 132.95760966 -114.10811544 129.48844218 -114.09776306 126.01904297 C-114.09510231 124.36051316 -114.09834257 122.70196268 -114.10768127 121.04345703 C-114.11788646 118.72178392 -114.10229279 116.40163802 -114.08007812 114.08007812 C-114.07689575 112.76136719 -114.07371338 111.44265625 -114.07043457 110.08398438 C-113.28803104 104.59042476 -110.98323546 101.7459864 -106.84848022 98.17095947 C-102.68392265 96.07551113 -99.57632218 95.97913866 -94.98681641 96.06347656 C-94.14713318 96.06289246 -93.30744995 96.06230835 -92.44232178 96.06170654 C-89.6824732 96.06448074 -86.92372107 96.09554062 -84.1640625 96.12695312 C-82.24450266 96.13441789 -80.32493518 96.14010971 -78.40536499 96.144104 C-73.36475408 96.15934174 -68.32460768 96.19860759 -63.28417969 96.24291992 C-58.13613162 96.28391274 -52.98800815 96.30212359 -47.83984375 96.32226562 C-37.74719228 96.36510359 -27.65488484 96.43333244 -17.5625 96.51757812 C-17.57138245 95.45348724 -17.58026489 94.38939636 -17.5894165 93.2930603 C-17.67054948 83.25857867 -17.73048808 73.22416371 -17.76974869 63.18942833 C-17.79061166 58.03060598 -17.81890597 52.87204871 -17.86425781 47.71337891 C-17.90776124 42.7337242 -17.93164681 37.75432426 -17.94200897 32.77449417 C-17.94939224 30.87589127 -17.96381014 28.9773021 -17.98542023 27.07880783 C-18.01451408 24.4166541 -18.01845352 21.75554919 -18.01660156 19.09326172 C-18.03098267 18.31066986 -18.04536377 17.528078 -18.06018066 16.72177124 C-18.02126351 11.54194023 -17.06322843 8.56640224 -13.5625 4.51757812 C-9.03823413 0.70142191 -5.8581698 0.0141372 0 0 Z " fill="#EEEEEE" transform="translate(137.5625,63.482421875)"/>
<path d="M0 0 C0.62003906 0.36222656 1.24007813 0.72445312 1.87890625 1.09765625 C9.88185808 6.19672923 14.41931054 13.9791043 16.46875 23.08203125 C18.08419661 33.27035931 15.70528152 42.53886901 10 51 C6.580375 54.96796152 2.87855255 58.62891949 -0.84887695 62.30297852 C-1.95390871 63.40688006 -3.05805663 64.51166694 -4.16139221 65.61726379 C-7.1397178 68.59673069 -10.13015827 71.56375647 -13.12302804 74.52860379 C-16.2558974 77.63636194 -19.37734149 80.75555395 -22.50004578 83.8735199 C-28.40634927 89.7674221 -34.32276896 95.65105878 -40.24294585 101.53102201 C-46.98605014 108.22931984 -53.71771518 114.93906429 -60.44847167 121.64976609 C-74.28634417 135.4458988 -88.13842566 149.22768379 -102 163 C-100.77482666 163.01401855 -100.77482666 163.01401855 -99.52490234 163.02832031 C-95.80766494 163.08215507 -92.091668 163.16577994 -88.375 163.25 C-87.08980469 163.26417969 -85.80460938 163.27835938 -84.48046875 163.29296875 C-72.43933048 163.60491534 -72.43933048 163.60491534 -68 168 C-64.18384378 172.52426587 -63.49655908 175.7043302 -63.48242188 181.5625 C-63.4754126 182.29500977 -63.46840332 183.02751953 -63.46118164 183.78222656 C-63.44366603 186.18854382 -63.45520046 188.59367209 -63.46875 191 C-63.46605321 192.68099186 -63.46216923 194.36198221 -63.45715332 196.04296875 C-63.45126702 199.56004743 -63.45979291 203.0767188 -63.47851562 206.59375 C-63.50130499 211.09302189 -63.4881772 215.59133927 -63.46422577 220.09057617 C-63.44974409 223.55996847 -63.45438456 227.02913594 -63.46473694 230.49853516 C-63.46739769 232.15706496 -63.46415743 233.81561544 -63.45481873 235.47412109 C-63.44461354 237.79579421 -63.46020721 240.11594011 -63.48242188 242.4375 C-63.48560425 243.75621094 -63.48878662 245.07492187 -63.49206543 246.43359375 C-64.26409632 251.85432305 -66.44567789 254.75192192 -70.66948128 258.14352036 C-74.48064754 260.26791994 -77.38883148 260.55259691 -81.63095093 260.48101807 C-82.37748932 260.48444214 -83.12402771 260.48786621 -83.89318848 260.49139404 C-86.39191397 260.49799255 -88.88955682 260.47596052 -91.38818359 260.45410156 C-93.21115395 260.45287575 -95.03412621 260.45341099 -96.85709572 260.45556259 C-101.73408058 260.45646475 -106.61067198 260.43330042 -111.48756409 260.40512085 C-116.06569647 260.38232222 -120.64373369 260.38126737 -125.22192383 260.37841797 C-138.60633456 260.35743794 -151.99067226 260.30159321 -165.375 260.25 C-195.28125 260.1675 -225.1875 260.085 -256 260 C-256 196.64 -256 133.28 -256 68 C-170 68 -170 68 -164 72 C-159.41718443 77.12191401 -159.39926109 81.66357588 -159.390625 88.2109375 C-159.37408875 89.17907379 -159.35755249 90.14721008 -159.34051514 91.14468384 C-159.29212655 94.22152102 -159.2706842 97.29786426 -159.25 100.375 C-159.22183272 102.46747264 -159.19190424 104.55992237 -159.16015625 106.65234375 C-159.08636978 111.76818849 -159.03673912 116.8837605 -159 122 C-158.38377274 121.38008556 -157.76754547 120.76017113 -157.13264465 120.12147141 C-142.12835031 105.02878725 -127.11295503 89.94722644 -112.08517456 74.87792587 C-104.81807871 67.59021683 -97.55476815 60.29880921 -90.30029297 52.99853516 C-83.97628027 46.63461691 -77.64523545 40.2777936 -71.30569553 33.92934155 C-67.95011632 30.56855396 -64.59813084 27.20435232 -61.25454712 23.83162689 C-58.10483881 20.65469102 -54.94578436 17.48735434 -51.77943611 14.32700539 C-50.62145656 13.1679289 -49.46687902 12.0054416 -48.31606865 10.83924675 C-35.67193172 -1.96552283 -17.16640976 -11.06924943 0 0 Z " fill="#FEB64D" transform="translate(472,92)"/>
<path d="M0 0 C31.68 0 63.36 0 96 0 C96.16121214 45.39912899 96.16121214 45.39912899 96.1953125 64.40234375 C96.21906047 77.5311507 96.2470002 90.65985508 96.30175781 103.78857422 C96.34161595 113.34954065 96.36743055 122.91042398 96.37635398 132.47147119 C96.38157044 137.534406 96.39383762 142.59710306 96.42292023 147.6599617 C96.45007308 152.42549341 96.45844522 157.19068948 96.45243073 161.9562912 C96.45353102 163.70502674 96.4614857 165.45377353 96.4768219 167.20244217 C96.49674827 169.59172264 96.49193024 171.97973885 96.48101807 174.36904907 C96.49266943 175.05972461 96.5043208 175.75040015 96.51632524 176.46200526 C96.45532875 181.40903595 95.06867581 184.17835558 92 188 C87.47573413 191.81615622 84.2956698 192.50344092 78.4375 192.51757812 C77.70499023 192.5245874 76.97248047 192.53159668 76.21777344 192.53881836 C73.81145618 192.55633397 71.40632791 192.54479954 69 192.53125 C67.31900814 192.53394679 65.63801779 192.53783077 63.95703125 192.54284668 C60.43995257 192.54873298 56.9232812 192.54020709 53.40625 192.52148438 C48.90697811 192.49869501 44.40866073 192.5118228 39.90942383 192.53577423 C36.44003153 192.55025591 32.97086406 192.54561544 29.50146484 192.53526306 C27.84293504 192.53260231 26.18438456 192.53584257 24.52587891 192.54518127 C22.20420579 192.55538646 19.88405989 192.53979279 17.5625 192.51757812 C16.24378906 192.51439575 14.92507812 192.51121338 13.56640625 192.50793457 C8.14567695 191.73590368 5.24807808 189.55432211 1.85647964 185.33051872 C-0.267932 181.51933082 -0.55258051 178.61116381 -0.48101807 174.36904907 C-0.48443577 173.62071599 -0.48785347 172.87238292 -0.49137473 172.10137308 C-0.49794118 169.6044592 -0.47599915 167.10863052 -0.45410156 164.61181641 C-0.45297281 162.81785101 -0.45360748 161.02388376 -0.45587158 159.22991943 C-0.45701858 154.36663117 -0.43351144 149.50373804 -0.40557575 144.64054155 C-0.38055985 139.55565936 -0.37821994 134.47076797 -0.37347412 129.38583374 C-0.36104492 119.75988634 -0.32822399 110.1341208 -0.28807616 100.50825346 C-0.23499396 87.49865592 -0.21341254 74.4890086 -0.19006729 61.47933006 C-0.15246261 40.98608384 -0.07277135 20.49322137 0 0 Z " fill="#747474" transform="translate(120,256)"/>
<path d="M0 0 C31.68 0 63.36 0 96 0 C96.0825 14.06625 96.165 28.1325 96.25 42.625 C96.28641602 47.06018066 96.32283203 51.49536133 96.36035156 56.06494141 C96.37841797 61.49682617 96.37841797 61.49682617 96.3817749 64.04281616 C96.38790191 65.81426007 96.40193866 67.58568769 96.42230225 69.35702515 C96.45166414 72.04641528 96.45562145 74.73478954 96.45410156 77.42431641 C96.468494 78.20840693 96.48288643 78.99249744 96.497715 79.80034828 C96.45865324 84.97810984 95.49917054 87.95297768 92 92 C87.47573413 95.81615622 84.2956698 96.50344092 78.4375 96.51757812 C77.70499023 96.5245874 76.97248047 96.53159668 76.21777344 96.53881836 C73.81145618 96.55633397 71.40632791 96.54479954 69 96.53125 C67.31900814 96.53394679 65.63801779 96.53783077 63.95703125 96.54284668 C60.43995257 96.54873298 56.9232812 96.54020709 53.40625 96.52148438 C48.90697811 96.49869501 44.40866073 96.5118228 39.90942383 96.53577423 C36.44003153 96.55025591 32.97086406 96.54561544 29.50146484 96.53526306 C27.84293504 96.53260231 26.18438456 96.53584257 24.52587891 96.54518127 C22.20420579 96.55538646 19.88405989 96.53979279 17.5625 96.51757812 C16.24378906 96.51439575 14.92507812 96.51121338 13.56640625 96.50793457 C8.07284664 95.72553104 5.22840827 93.42073546 1.65338135 89.28598022 C-0.44211301 85.12133121 -0.53834358 82.01376726 -0.45410156 77.42431641 C-0.4545837 76.57114523 -0.45506584 75.71797405 -0.45556259 74.8389492 C-0.45259042 72.09272084 -0.42219384 69.34759512 -0.390625 66.6015625 C-0.38473966 64.89998904 -0.38066154 63.19840833 -0.37841797 61.49682617 C-0.35749508 55.2061066 -0.30164987 48.91554233 -0.25 42.625 C-0.1675 28.55875 -0.085 14.4925 0 0 Z " fill="#E0E0E0" transform="translate(120,352)"/>
<path d="M0 0 C0.85317118 -0.00048214 1.70634235 -0.00096428 2.5853672 -0.00146103 C5.33159556 0.00151114 8.07672129 0.03190773 10.82275391 0.06347656 C12.52432737 0.0693619 14.22590807 0.07344003 15.92749023 0.07568359 C22.2182098 0.09660648 28.50877408 0.1524517 34.79931641 0.20410156 C55.89869141 0.32785156 55.89869141 0.32785156 77.42431641 0.45410156 C77.42431641 32.13410156 77.42431641 63.81410156 77.42431641 96.45410156 C63.35806641 96.53660156 49.29181641 96.61910156 34.79931641 96.70410156 C30.36413574 96.74051758 25.92895508 96.77693359 21.359375 96.81445312 C15.92749023 96.83251953 15.92749023 96.83251953 13.38150024 96.83587646 C11.61005633 96.84200347 9.83862872 96.85604023 8.06729126 96.87640381 C5.37790112 96.9057657 2.68952687 96.90972302 0 96.90820312 C-1.17613578 96.92979177 -1.17613578 96.92979177 -2.37603188 96.95181656 C-7.55379343 96.91275481 -10.52866128 95.95327211 -14.57568359 92.45410156 C-18.39183981 87.92983569 -19.07912452 84.74977137 -19.09326172 78.89160156 C-19.100271 78.1590918 -19.10728027 77.42658203 -19.11450195 76.671875 C-19.13201756 74.26555774 -19.12048314 71.86042948 -19.10693359 69.45410156 C-19.10963038 67.7731097 -19.11351436 66.09211936 -19.11853027 64.41113281 C-19.12441657 60.89405413 -19.11589068 57.37738277 -19.09716797 53.86035156 C-19.0743786 49.36107967 -19.0875064 44.86276229 -19.11145782 40.36352539 C-19.1259395 36.8941331 -19.12129903 33.42496562 -19.11094666 29.95556641 C-19.1082859 28.2970366 -19.11152616 26.63848612 -19.12086487 24.97998047 C-19.13107006 22.65830735 -19.11547638 20.33816146 -19.09326172 18.01660156 C-19.09007935 16.69789063 -19.08689697 15.37917969 -19.08361816 14.02050781 C-18.30121463 8.5269482 -15.99641906 5.68250983 -11.86166382 2.10748291 C-7.6970148 0.01198856 -4.58945086 -0.08424201 0 0 Z " fill="#747474" transform="translate(42.57568359375,159.5458984375)"/>
<path d="M0 0 C0.73250977 -0.00700928 1.46501953 -0.01401855 2.21972656 -0.02124023 C4.62604382 -0.03875584 7.03117209 -0.02722142 9.4375 -0.01367188 C11.11849186 -0.01636866 12.79948221 -0.02025264 14.48046875 -0.02526855 C17.99754743 -0.03115485 21.5142188 -0.02262896 25.03125 -0.00390625 C29.53052189 0.01888312 34.02883927 0.00575532 38.52807617 -0.01819611 C41.99746847 -0.03267779 45.46663594 -0.02803731 48.93603516 -0.01768494 C50.59456496 -0.01502418 52.25311544 -0.01826444 53.91162109 -0.02760315 C56.23329421 -0.03780834 58.55344011 -0.02221466 60.875 0 C62.19371094 0.00318237 63.51242188 0.00636475 64.87109375 0.00964355 C70.36465336 0.79204709 73.20909173 3.09684266 76.78411865 7.2315979 C78.87961301 11.39624692 78.97584358 14.50381086 78.89160156 19.09326172 C78.8920837 19.9464329 78.89256584 20.79960407 78.89306259 21.67862892 C78.89009042 24.42485728 78.85969384 27.169983 78.828125 29.91601562 C78.82223966 31.61758909 78.81816154 33.31916979 78.81591797 35.02075195 C78.79499508 41.31147152 78.73914987 47.6020358 78.6875 53.89257812 C78.605 67.95882812 78.5225 82.02507812 78.4375 96.51757812 C46.7575 96.51757812 15.0775 96.51757812 -17.5625 96.51757812 C-17.645 82.45132813 -17.7275 68.38507813 -17.8125 53.89257812 C-17.86712402 47.23980713 -17.86712402 47.23980713 -17.92285156 40.45263672 C-17.94091797 35.02075195 -17.94091797 35.02075195 -17.9442749 32.47476196 C-17.95040191 30.70331805 -17.96443866 28.93189044 -17.98480225 27.16055298 C-18.01416414 24.47116284 -18.01812145 21.78278858 -18.01660156 19.09326172 C-18.030994 18.3091712 -18.04538643 17.52508068 -18.060215 16.71722984 C-18.02115324 11.53946829 -17.06167054 8.56460044 -13.5625 4.51757812 C-9.03823413 0.70142191 -5.8581698 0.0141372 0 0 Z " fill="#616161" transform="translate(137.5625,63.482421875)"/>
<path d="M0 0 C5.35640214 4.50360654 10.48608761 9.18077257 15.5 14.0625 C16.23992187 14.75666016 16.97984375 15.45082031 17.7421875 16.16601562 C18.43570313 16.84470703 19.12921875 17.52339844 19.84375 18.22265625 C20.47474609 18.82859619 21.10574219 19.43453613 21.75585938 20.05883789 C23 22 23 22 22.99047852 24.41845703 C21.69937026 27.78354915 19.88578529 29.56656885 17.30859375 32.08203125 C16.84389175 32.54107346 16.37918976 33.00011566 15.90040588 33.47306824 C14.42193317 34.92924735 12.93013843 36.37085904 11.4375 37.8125 C10.42942493 38.80050098 9.4222527 39.78942404 8.41601562 40.77929688 C5.95437546 43.19696393 3.48059327 45.60176584 1 48 C0.54109375 47.60167969 0.0821875 47.20335937 -0.390625 46.79296875 C-3.52271585 44.08857938 -6.63877459 41.42008229 -10 39 C-10.26554687 40.21816406 -10.53109375 41.43632812 -10.8046875 42.69140625 C-11.16134345 44.3151294 -11.51812074 45.93882591 -11.875 47.5625 C-12.13603516 48.76229492 -12.13603516 48.76229492 -12.40234375 49.98632812 C-12.57636719 50.77587891 -12.75039063 51.56542969 -12.9296875 52.37890625 C-13.16534424 53.45507202 -13.16534424 53.45507202 -13.40576172 54.55297852 C-14.17638358 57.72633224 -15.10287537 60.8600638 -16 64 C-5.44 61.36 5.12 58.72 16 56 C16 77.12 16 98.24 16 120 C-15.68 120 -47.36 120 -80 120 C-80 88.32 -80 56.64 -80 24 C-55.58 24 -31.16 24 -6 24 C-5.34 20.37 -4.68 16.74 -4 13 C-3.50655202 10.78538659 -2.99189102 8.57514865 -2.4375 6.375 C-2.18871094 5.37210938 -1.93992187 4.36921875 -1.68359375 3.3359375 C-1 1 -1 1 0 0 Z " fill="#EDEDED" transform="translate(296,232)"/>
<path d="M0 0 C14.06625 -0.0825 28.1325 -0.165 42.625 -0.25 C47.06018066 -0.28641602 51.49536133 -0.32283203 56.06494141 -0.36035156 C61.49682617 -0.37841797 61.49682617 -0.37841797 64.04281616 -0.3817749 C65.81426007 -0.38790191 67.58568769 -0.40193866 69.35702515 -0.42230225 C72.04641528 -0.45166414 74.73478954 -0.45562145 77.42431641 -0.45410156 C78.20840693 -0.468494 78.99249744 -0.48288643 79.80034828 -0.497715 C84.98610033 -0.45859296 87.86464663 0.61545604 92 4 C96.47906098 9.05846547 96.73388152 13.65157702 96.91796875 20.12109375 C96.94788406 21.09804703 96.97779938 22.07500031 97.00862122 23.08155823 C97.05943546 25.14811028 97.09821114 27.21498894 97.12573242 29.28198242 C97.186809 32.40219884 97.34932131 35.50681191 97.51367188 38.62304688 C97.95616617 54.29844061 97.95616617 54.29844061 92.69311523 60.48291016 C90.13828044 63.0933947 87.42181985 65.35377114 84.56298828 67.61938477 C78.77361909 72.440391 77.63616567 79.65276342 76.44799805 86.79101562 C75.8166804 89.90391049 74.87258784 92.94594256 74 96 C49.58 96 25.16 96 0 96 C0 64.32 0 32.64 0 0 Z " fill="#616161" transform="translate(216,160)"/>
<path d="M0 0 C4.92898044 1.82542002 7.46650282 5.52557133 10 10 C10.50793457 13.56640625 10.50793457 13.56640625 10.51757812 17.5625 C10.5245874 18.29500977 10.53159668 19.02751953 10.53881836 19.78222656 C10.55633397 22.18854382 10.54479954 24.59367209 10.53125 27 C10.53394679 28.68099186 10.53783077 30.36198221 10.54284668 32.04296875 C10.54873298 35.56004743 10.54020709 39.0767188 10.52148438 42.59375 C10.49869501 47.09302189 10.5118228 51.59133927 10.53577423 56.09057617 C10.55025591 59.55996847 10.54561544 63.02913594 10.53526306 66.49853516 C10.53260231 68.15706496 10.53584257 69.81561544 10.54518127 71.47412109 C10.55538646 73.79579421 10.53979279 76.11594011 10.51757812 78.4375 C10.51439575 79.75621094 10.51121338 81.07492187 10.50793457 82.43359375 C9.72553104 87.92715336 7.42073546 90.77159173 3.28598022 94.34661865 C-0.87857735 96.442067 -3.98617782 96.53843947 -8.57568359 96.45410156 C-9.41536682 96.45468567 -10.25505005 96.45526978 -11.12017822 96.45587158 C-13.8800268 96.45309739 -16.63877893 96.4220375 -19.3984375 96.390625 C-21.31799734 96.38316023 -23.23756482 96.37746841 -25.15713501 96.37347412 C-30.19774592 96.35823638 -35.23789232 96.31897054 -40.27832031 96.2746582 C-46.33224387 96.22645209 -52.38632316 96.20816263 -58.44038391 96.18484497 C-67.6272452 96.14611847 -76.81308823 96.06945166 -86 96 C-86 74.88 -86 53.76 -86 32 C-71 28.4375 -71 28.4375 -66.31640625 27.36499023 C-55.81253599 24.75883356 -50.16793887 21.15603621 -43.5546875 12.59765625 C-31.94214025 -2.15255636 -17.83546054 -3.4308951 0 0 Z " fill="#616161" transform="translate(398,256)"/>
<path d="M0 0 C1.1164222 0.95052271 2.23193255 1.9021165 3.34706116 2.85415649 C4.2790085 3.64886069 4.2790085 3.64886069 5.22978306 4.45961952 C7.45296352 6.39415291 9.54510139 8.43229192 11.62109375 10.5234375 C12.41064453 11.31621094 13.20019531 12.10898438 14.01367188 12.92578125 C15.2134668 14.13814453 15.2134668 14.13814453 16.4375 15.375 C17.26443359 16.20644531 18.09136719 17.03789062 18.94335938 17.89453125 C20.96455531 19.9274104 22.98336335 21.96259963 25 24 C19.69550603 30.4367947 13.84774226 36.28679384 7.94580078 42.16772461 C6.83141445 43.28182845 5.71724909 44.39615337 4.60328674 45.51068115 C1.59564178 48.51861168 -1.41506472 51.52346052 -4.42635107 54.52774501 C-7.57917453 57.67429468 -10.72914472 60.82369814 -13.87942505 63.97279358 C-19.83772724 69.92799428 -25.79857276 75.88064242 -31.76034749 81.83236653 C-38.5507317 88.61155279 -45.33825862 95.39359681 -52.12555289 102.1758765 C-66.08053603 116.12042204 -80.03908444 130.06139401 -94 144 C-95.1164222 143.04947729 -96.23193255 142.0978835 -97.34706116 141.14584351 C-97.96835938 140.61604071 -98.58965761 140.08623791 -99.22978306 139.54038048 C-101.45296352 137.60584709 -103.54510139 135.56770808 -105.62109375 133.4765625 C-106.41064453 132.68378906 -107.20019531 131.89101563 -108.01367188 131.07421875 C-108.81353516 130.26597656 -109.61339844 129.45773437 -110.4375 128.625 C-111.26443359 127.79355469 -112.09136719 126.96210938 -112.94335938 126.10546875 C-114.96455531 124.0725896 -116.98336335 122.03740037 -119 120 C-113.69550603 113.5632053 -107.84774226 107.71320616 -101.94580078 101.83227539 C-100.83141445 100.71817155 -99.71724909 99.60384663 -98.60328674 98.48931885 C-95.59564178 95.48138832 -92.58493528 92.47653948 -89.57364893 89.47225499 C-86.42082547 86.32570532 -83.27085528 83.17630186 -80.12057495 80.02720642 C-74.16227276 74.07200572 -68.20142724 68.11935758 -62.23965251 62.16763347 C-55.4492683 55.38844721 -48.66174138 48.60640319 -41.87444711 41.8241235 C-27.91946397 27.87957796 -13.96091556 13.93860599 0 0 Z " fill="#FEA726" transform="translate(439,136)"/>
<path d="M0 0 C18.48 0 36.96 0 56 0 C56.0825 7.38375 56.165 14.7675 56.25 22.375 C56.28641602 24.6854834 56.32283203 26.9959668 56.36035156 29.37646484 C56.37205004 31.23794632 56.38223911 33.09943815 56.390625 34.9609375 C56.41108887 35.90300049 56.43155273 36.84506348 56.45263672 37.81567383 C56.4574061 47.01819451 53.59587191 54.9578408 47.8359375 62.1796875 C34.54969574 75.35285486 18.3265521 72 0 72 C0 48.24 0 24.48 0 0 Z " fill="#747474" transform="translate(216,160)"/>
<path d="M0 0 C18.48 0 36.96 0 56 0 C56.061875 7.239375 56.12375 14.47875 56.1875 21.9375 C56.22846802 25.33857056 56.22846802 25.33857056 56.27026367 28.80834961 C56.27903604 30.63134226 56.28667819 32.45434085 56.29296875 34.27734375 C56.30831665 35.20293091 56.32366455 36.12851807 56.33947754 37.08215332 C56.34340983 46.97972477 53.52787521 55.44814437 47 63 C33.26117236 74.87593576 18.27998861 72 0 72 C0 48.24 0 24.48 0 0 Z " fill="#EDEDED" transform="translate(120,352)"/>
<path d="M0 0 C1.01252838 0.00565979 2.02505676 0.01131958 3.06826782 0.01715088 C6.28818927 0.03946246 9.5069799 0.08965028 12.7265625 0.140625 C14.91534846 0.16069669 17.10415194 0.17894629 19.29296875 0.1953125 C24.64621628 0.23930995 29.99880858 0.30616982 35.3515625 0.390625 C35.45364457 6.75848575 35.52331184 13.12613263 35.57128906 19.49462891 C35.5913064 21.65746954 35.6185288 23.82025673 35.65332031 25.98291016 C35.70227497 29.10592906 35.72463067 32.2282276 35.7421875 35.3515625 C35.76283264 36.30614349 35.78347778 37.26072449 35.80474854 38.24423218 C35.80776447 47.43005376 32.93580988 55.36304072 27.1875 62.5703125 C21.56069 68.14923476 13.84012675 72.09393952 5.91650391 72.61767578 C4.69108887 72.60720215 3.46567383 72.59672852 2.203125 72.5859375 C1.54573334 72.5831076 0.88834167 72.58027771 0.21102905 72.57736206 C-1.86731983 72.56625947 -3.94522116 72.54117486 -6.0234375 72.515625 C-7.44139998 72.50558231 -8.85936929 72.49645873 -10.27734375 72.48828125 C-13.73451787 72.46635305 -17.19143392 72.43189318 -20.6484375 72.390625 C-20.74128703 64.4105132 -20.8122775 56.43062864 -20.85568619 48.45010948 C-20.87652465 44.7440515 -20.90477253 41.0383642 -20.95019531 37.33251953 C-20.99378862 33.75336714 -21.01760273 30.17457036 -21.02794647 26.59517288 C-21.03531385 25.23244253 -21.04970088 23.86973073 -21.07135773 22.50715256 C-21.23644148 11.68621815 -21.23644148 11.68621815 -18.99902344 6.75634766 C-12.81889625 0.53642322 -8.45794489 -0.17905126 0 0 Z " fill="#747474" transform="translate(140.6484375,63.609375)"/>
<path d="M0 0 C0.93005859 0.54333984 0.93005859 0.54333984 1.87890625 1.09765625 C9.88185808 6.19672923 14.41931054 13.9791043 16.46875 23.08203125 C18.07589344 33.21799275 15.75039573 42.59998017 10 51 C7.22934198 54.20268596 4.24647558 57.13685781 1.1875 60.0625 C0.00510742 61.21782227 0.00510742 61.21782227 -1.20117188 62.39648438 C-3.12521777 64.27388673 -5.05799122 66.1412156 -7 68 C-10.73806611 66.43904931 -13.13242541 64.12570854 -15.984375 61.28125 C-17.38623047 59.88326172 -17.38623047 59.88326172 -18.81640625 58.45703125 C-19.2973877 57.97186035 -19.77836914 57.48668945 -20.27392578 56.98681641 C-21.75204848 55.49793661 -23.24059911 54.02008349 -24.73046875 52.54296875 C-25.65988281 51.61097656 -26.58929688 50.67898437 -27.546875 49.71875 C-28.40120117 48.86216797 -29.25552734 48.00558594 -30.13574219 47.12304688 C-32 45 -32 45 -32 43 C-32.66 43 -33.32 43 -34 43 C-35.33895632 41.33784732 -36.67130142 39.67036393 -38 38 C-39.2065625 37.0409375 -39.2065625 37.0409375 -40.4375 36.0625 C-43.40696837 33.67244009 -45.56330656 30.92403212 -48 28 C-49.6396721 26.63360658 -51.30327614 25.29486821 -53 24 C-54.0173873 23.01769502 -55.02596117 22.02530403 -56 21 C-53.80067134 16.06345596 -50.1480312 12.7798788 -46.375 9 C-45.68792969 8.2884375 -45.00085938 7.576875 -44.29296875 6.84375 C-33.00311898 -4.50964489 -14.24895951 -9.18801829 0 0 Z " fill="#FF7143" transform="translate(472,92)"/>
<path d="M0 0 C0.09948619 6.22553948 0.17175931 12.45060782 0.21972656 18.67675781 C0.23974016 20.79109772 0.26695972 22.90538299 0.30175781 25.01953125 C0.35072941 28.07305448 0.37307182 31.12584078 0.390625 34.1796875 C0.41127014 35.11239471 0.43191528 36.04510193 0.45318604 37.006073 C0.45624438 46.11842573 -2.46587158 54.03525523 -8.1640625 61.1796875 C-13.7908725 66.75860976 -21.51143575 70.70331452 -29.43505859 71.22705078 C-30.66047363 71.21657715 -31.88588867 71.20610352 -33.1484375 71.1953125 C-34.35161621 71.19031738 -35.55479492 71.18532227 -36.79443359 71.18017578 C-38.30602051 71.16196777 -39.81760742 71.14375977 -41.375 71.125 C-48.614375 71.063125 -48.614375 71.063125 -56 71 C-56 57.8 -56 44.6 -56 31 C-41 27.4375 -41 27.4375 -36.31640625 26.36499023 C-28.29368174 24.37444042 -22.6491927 22.24280728 -17 16 C-15.58782698 14.60223691 -14.1723466 13.20780888 -12.75390625 11.81640625 C-11.35416446 10.40101031 -9.95703404 8.98302722 -8.5625 7.5625 C-7.14941047 6.12406358 -5.73417027 4.68773558 -4.31640625 3.25390625 C-3.70224854 2.62814697 -3.08809082 2.0023877 -2.45532227 1.35766602 C-1 0 -1 0 0 0 Z " fill="#757574" transform="translate(368,257)"/>
<path d="M0 0 C31.68 0 63.36 0 96 0 C96 7.92 96 15.84 96 24 C64.32 24 32.64 24 0 24 C0 16.08 0 8.16 0 0 Z " fill="#E0E0E0" transform="translate(216,328)"/>
<path d="M0 0 C31.68 0 63.36 0 96 0 C96 7.92 96 15.84 96 24 C64.32 24 32.64 24 0 24 C0 16.08 0 8.16 0 0 Z " fill="#E0E0E0" transform="translate(120,232)"/>
<path d="M0 0 C31.68 0 63.36 0 96 0 C96 7.92 96 15.84 96 24 C84.89063006 24.09041621 73.78150502 24.16378249 62.6718502 24.20724869 C57.51302786 24.22811166 52.35447058 24.25640597 47.19580078 24.30175781 C42.21614608 24.34526124 37.23674614 24.36914681 32.25691605 24.37950897 C30.35831314 24.38689224 28.45972398 24.40131014 26.56122971 24.42292023 C23.89907597 24.45201408 21.23797107 24.45595352 18.57568359 24.45410156 C17.79309174 24.46848267 17.01049988 24.48286377 16.20419312 24.49768066 C9.77699816 24.4493918 6.19324995 22.19324995 1.625 17.625 C0 14 0 14 0 0 Z " fill="#616161" transform="translate(24,232)"/>
<path d="M0 0 C0.76763672 -0.01224609 1.53527344 -0.02449219 2.32617188 -0.03710938 C6.22167874 -0.04729815 8.1241199 -0.02142006 11.4375 2.1875 C10.4475 2.1875 9.4575 2.1875 8.4375 2.1875 C8.685 3.1775 8.685 3.1775 8.9375 4.1875 C10.48075513 13.44703077 8.86284369 21.85217205 3.7421875 29.828125 C-1.14272185 36.11719858 -6.84558156 41.66185392 -12.5625 47.1875 C-13.2225 47.8475 -13.8825 48.5075 -14.5625 49.1875 C-14.5625 48.5275 -14.5625 47.8675 -14.5625 47.1875 C-15.2225 47.1875 -15.8825 47.1875 -16.5625 47.1875 C-17.90145632 45.52534732 -19.23380142 43.85786393 -20.5625 42.1875 C-21.7690625 41.2284375 -21.7690625 41.2284375 -23 40.25 C-25.96946837 37.85994009 -28.12580656 35.11153212 -30.5625 32.1875 C-32.2021721 30.82110658 -33.86577614 29.48236821 -35.5625 28.1875 C-36.5798873 27.20519502 -37.58846117 26.21280403 -38.5625 25.1875 C-36.36317134 20.25095596 -32.7105312 16.9673788 -28.9375 13.1875 C-28.25042969 12.4759375 -27.56335938 11.764375 -26.85546875 11.03125 C-18.69665714 2.82651638 -11.38470504 0.00960735 0 0 Z " fill="#FF8A64" transform="translate(454.5625,87.8125)"/>
<path d="M0 0 C5.80891746 4.81867247 11.13065552 10.01256408 16.4375 15.375 C17.26443359 16.20644531 18.09136719 17.03789062 18.94335938 17.89453125 C20.96455531 19.9274104 22.98336335 21.96259963 25 24 C24 26 24 26 21.62210083 26.80996704 C20.5674765 27.07199921 19.51285217 27.33403137 18.42626953 27.60400391 C17.23478302 27.90416412 16.04329651 28.20432434 14.81570435 28.51358032 C13.5048086 28.83485282 12.1938429 29.15583994 10.8828125 29.4765625 C9.54605997 29.80939055 8.20946301 30.14284401 6.87301636 30.47689819 C4.06810261 31.17619133 1.26190452 31.86998009 -1.54541016 32.55957031 C-5.14441749 33.44377765 -8.7407818 34.33820391 -12.33633232 35.23635292 C-15.09795131 35.92558222 -17.86049917 36.61102087 -20.62338638 37.29514694 C-21.94966159 37.62369925 -23.27574072 37.9530441 -24.60161972 38.28319168 C-26.45601625 38.74398763 -28.3117211 39.19950881 -30.16748047 39.65478516 C-31.22369598 39.91522614 -32.2799115 40.17566711 -33.36813354 40.44400024 C-36 41 -36 41 -39 41 C-37.67429579 32.45269656 -35.48931859 24.27758852 -33 16 C-30.00779732 17.36370299 -27.70973471 18.94908083 -25.25 21.125 C-24.63640625 21.66382813 -24.0228125 22.20265625 -23.390625 22.7578125 C-22.93171875 23.16773438 -22.4728125 23.57765625 -22 24 C-19.02117908 21.07062957 -16.04899169 18.13473538 -13.08276367 15.19262695 C-12.07284247 14.19276118 -11.06113323 13.19469807 -10.04760742 12.19848633 C-8.59079344 10.76594068 -7.14054014 9.32702785 -5.69140625 7.88671875 C-4.81685791 7.02264404 -3.94230957 6.15856934 -3.04125977 5.26831055 C-0.80827655 3.09072357 -0.80827655 3.09072357 0 0 Z " fill="#FECB80" transform="translate(319,255)"/>
<path d="M0 0 C5.35640214 4.50360654 10.48608761 9.18077257 15.5 14.0625 C16.23992187 14.75666016 16.97984375 15.45082031 17.7421875 16.16601562 C18.43570312 16.84470703 19.12921875 17.52339844 19.84375 18.22265625 C20.47474609 18.82859619 21.10574219 19.43453613 21.75585938 20.05883789 C23 22 23 22 22.99047852 24.41845703 C21.69937026 27.78354915 19.88578529 29.56656885 17.30859375 32.08203125 C16.84389175 32.54107346 16.37918976 33.00011566 15.90040588 33.47306824 C14.42193317 34.92924735 12.93013843 36.37085904 11.4375 37.8125 C10.42942493 38.80050098 9.4222527 39.78942404 8.41601562 40.77929688 C5.95437546 43.19696393 3.48059327 45.60176584 1 48 C0.54109375 47.60167969 0.0821875 47.20335937 -0.390625 46.79296875 C-3.52271585 44.08857938 -6.63877459 41.42008229 -10 39 C-7.89882609 29.28060337 -5.70293118 19.59025544 -3.3125 9.9375 C-3.09827393 9.06319336 -2.88404785 8.18888672 -2.66333008 7.28808594 C-1.12010459 1.12010459 -1.12010459 1.12010459 0 0 Z " fill="#FEDEAF" transform="translate(296,232)"/>
<path d="M0 0 C4.7334375 0.061875 4.7334375 0.061875 9.5625 0.125 C9.5625 8.045 9.5625 15.965 9.5625 24.125 C-3.6375 24.125 -16.8375 24.125 -30.4375 24.125 C-29.18558606 14.10968851 -26.90916278 10.0736941 -19.73046875 3.60546875 C-13.59424924 -0.35641744 -7.02171664 -0.13040578 0 0 Z " fill="#616161" transform="translate(206.4375,327.875)"/>
<path d="M0 0 C3.1195572 1.38685223 5.25855799 3.00189491 7.671875 5.40625 C8.33574219 6.06753906 8.99960937 6.72882813 9.68359375 7.41015625 C10.36550781 8.09980469 11.04742187 8.78945313 11.75 9.5 C12.44738281 10.18964844 13.14476562 10.87929688 13.86328125 11.58984375 C14.52199219 12.25113281 15.18070312 12.91242188 15.859375 13.59375 C16.46233398 14.19896484 17.06529297 14.80417969 17.68652344 15.42773438 C19 17 19 17 19 19 C16.14732627 19.81806834 13.29304815 20.62957796 10.4375 21.4375 C9.63763672 21.66759766 8.83777344 21.89769531 8.01367188 22.13476562 C3.34302329 23.45017278 -1.17927153 24.43704245 -6 25 C-4.67429579 16.45269656 -2.48931859 8.27758852 0 0 Z " fill="#666563" transform="translate(286,271)"/>
<path d="M0 0 C3.61322401 1.806612 4.83748791 2.66418971 7.25 5.625 C7.77078125 6.25664062 8.2915625 6.88828125 8.828125 7.5390625 C9.40820312 8.26222656 9.40820312 8.26222656 10 9 C8 11 8 11 5.125 11.25 C2 11 2 11 -2 9 C-1.34 6.03 -0.68 3.06 0 0 Z " fill="#807D79" transform="translate(286,271)"/>
</svg>
